<svg width="198" height="120" viewBox="0 0 198 120" fill="none" xmlns="http://www.w3.org/2000/svg">
<path d="M55.9219 43.8466C55.9219 46.2762 56.1846 48.2462 56.6442 49.6908C57.1695 51.1354 57.8262 52.7113 58.7455 54.4186C59.0738 54.9439 59.2051 55.4692 59.2051 55.9289C59.2051 56.5855 58.8111 57.2422 57.9575 57.8988L53.8206 60.6567C53.2297 61.0507 52.6387 61.2477 52.1134 61.2477C51.4567 61.2477 50.8001 60.9194 50.1434 60.3284C49.2241 59.3434 48.4362 58.2928 47.7795 57.2422C47.1229 56.1259 46.4662 54.8783 45.7439 53.368C40.6221 59.4091 34.187 62.4297 26.4386 62.4297C20.9228 62.4297 16.5233 60.8537 13.3057 57.7018C10.0881 54.5499 8.44653 50.3474 8.44653 45.0943C8.44653 39.5128 10.4165 34.9819 14.422 31.5674C18.4275 28.1528 23.7463 26.4456 30.5098 26.4456C32.7424 26.4456 35.0406 26.6426 37.4702 26.9709C39.8998 27.2992 42.395 27.8245 45.0216 28.4155V23.622C45.0216 18.6315 43.971 15.1513 41.9354 13.1157C39.8341 11.0801 36.2882 10.0951 31.2321 10.0951C28.9338 10.0951 26.5699 10.3578 24.1403 10.9488C21.7107 11.5397 19.3468 12.2621 17.0486 13.1814C15.9979 13.641 15.21 13.9037 14.7503 14.035C14.2907 14.1663 13.9623 14.232 13.6997 14.232C12.7804 14.232 12.3207 13.5753 12.3207 12.1964V8.97883C12.3207 7.9282 12.4521 7.14023 12.7804 6.68058C13.1087 6.22093 13.6997 5.76128 14.619 5.30162C16.9172 4.11967 19.6751 3.1347 22.8927 2.34673C26.1103 1.49309 29.5248 1.0991 33.1364 1.0991C40.9504 1.0991 46.6632 2.87204 50.3404 6.41792C53.952 9.9638 55.7906 15.3483 55.7906 22.5714V43.8466H55.9219ZM29.2622 53.8276C31.4291 53.8276 33.6617 53.4336 36.0256 52.6457C38.3895 51.8577 40.4908 50.4131 42.2637 48.4431C43.3143 47.1955 44.1023 45.8166 44.4963 44.2406C44.8903 42.6647 45.1529 40.7604 45.1529 38.5278V35.7699C43.2487 35.3103 41.2131 34.9163 39.1118 34.6536C37.0106 34.391 34.975 34.2596 32.9394 34.2596C28.5398 34.2596 25.3223 35.1133 23.1554 36.8862C20.9884 38.6591 19.9378 41.1544 19.9378 44.4376C19.9378 47.5238 20.7258 49.8221 22.3674 51.398C23.9433 53.0397 26.2416 53.8276 29.2622 53.8276V53.8276ZM81.9907 60.9194C80.8087 60.9194 80.0208 60.7224 79.4954 60.2627C78.9701 59.8688 78.5105 58.9494 78.1165 57.7018L62.6853 6.94323C62.2914 5.62995 62.0944 4.77631 62.0944 4.31666C62.0944 3.26603 62.6197 2.67505 63.6703 2.67505H70.1054C71.353 2.67505 72.2067 2.87204 72.6663 3.33169C73.1916 3.72568 73.5856 4.64498 73.9796 5.8926L85.0112 49.3624L95.2549 5.8926C95.5832 4.57932 95.9772 3.72568 96.5025 3.33169C97.0278 2.93771 97.9471 2.67505 99.1291 2.67505H104.382C105.63 2.67505 106.484 2.87204 107.009 3.33169C107.534 3.72568 107.994 4.64498 108.256 5.8926L118.631 49.8878L129.991 5.8926C130.385 4.57932 130.845 3.72568 131.305 3.33169C131.83 2.93771 132.684 2.67505 133.866 2.67505H139.972C141.023 2.67505 141.614 3.20036 141.614 4.31666C141.614 4.64498 141.548 4.9733 141.483 5.36729C141.417 5.76128 141.286 6.28659 141.023 7.0089L125.198 57.7675C124.804 59.0808 124.344 59.9344 123.819 60.3284C123.294 60.7224 122.44 60.985 121.324 60.985H115.677C114.429 60.985 113.575 60.7881 113.05 60.3284C112.525 59.8688 112.065 59.0151 111.802 57.7018L101.624 15.3483L91.512 57.6362C91.1837 58.9494 90.7897 59.8031 90.2644 60.2627C89.7391 60.7224 88.8198 60.9194 87.6378 60.9194H81.9907ZM166.369 62.6923C162.955 62.6923 159.54 62.2983 156.257 61.5104C152.974 60.7224 150.413 59.8688 148.706 58.8838C147.655 58.2928 146.933 57.6362 146.67 57.0452C146.407 56.4542 146.276 55.7976 146.276 55.2066V51.8577C146.276 50.4787 146.801 49.8221 147.786 49.8221C148.18 49.8221 148.574 49.8878 148.968 50.0191C149.362 50.1504 149.953 50.4131 150.61 50.6757C152.843 51.6607 155.272 52.4487 157.833 52.974C160.46 53.4993 163.021 53.762 165.647 53.762C169.784 53.762 173.002 53.0397 175.234 51.595C177.467 50.1504 178.649 48.0492 178.649 45.3569C178.649 43.5183 178.058 42.008 176.876 40.7604C175.694 39.5128 173.461 38.3965 170.244 37.3459L160.722 34.391C155.929 32.8807 152.383 30.6481 150.216 27.6932C148.049 24.804 146.933 21.5864 146.933 18.1718C146.933 15.4139 147.524 12.9844 148.706 10.8831C149.888 8.78184 151.464 6.94323 153.434 5.49862C155.403 3.98834 157.636 2.87204 160.263 2.08407C162.889 1.2961 165.647 0.967773 168.536 0.967773C169.981 0.967773 171.491 1.03344 172.936 1.23043C174.446 1.42742 175.825 1.69008 177.204 1.95274C178.517 2.28106 179.765 2.60938 180.947 3.00337C182.129 3.39736 183.048 3.79134 183.705 4.18533C184.624 4.71064 185.281 5.23596 185.675 5.82694C186.069 6.35226 186.266 7.07456 186.266 7.99387V11.0801C186.266 12.459 185.74 13.1814 184.755 13.1814C184.23 13.1814 183.377 12.9187 182.26 12.3934C178.517 10.6861 174.315 9.83247 169.653 9.83247C165.91 9.83247 162.955 10.4234 160.919 11.6711C158.884 12.9187 157.833 14.823 157.833 17.5152C157.833 19.3538 158.49 20.9298 159.803 22.1774C161.116 23.425 163.546 24.6726 167.026 25.7889L176.35 28.7438C181.078 30.2541 184.493 32.3554 186.528 35.0476C188.564 37.7398 189.549 40.8261 189.549 44.2406C189.549 47.0642 188.958 49.6251 187.842 51.8577C186.66 54.0903 185.084 56.0602 183.048 57.6362C181.013 59.2778 178.583 60.4597 175.759 61.3134C172.805 62.2327 169.718 62.6923 166.369 62.6923V62.6923Z" fill="#252F3E"/>
<path fill-rule="evenodd" clip-rule="evenodd" d="M178.78 94.6052C157.177 110.562 125.789 119.032 98.8008 119.032C60.9781 119.032 26.8983 105.046 1.15786 81.8007C-0.877732 79.9621 0.960871 77.4668 3.39045 78.9114C31.2322 95.0649 65.5746 104.849 101.099 104.849C125.067 104.849 151.398 99.8584 175.628 89.6147C179.24 87.9731 182.326 91.9786 178.78 94.6052V94.6052Z" fill="#FF9900"/>
<path fill-rule="evenodd" clip-rule="evenodd" d="M187.776 84.3614C185.018 80.8155 169.521 82.6541 162.495 83.5077C160.394 83.7704 160.066 81.9318 161.97 80.5528C174.315 71.8851 194.605 74.3804 196.969 77.2696C199.333 80.2245 196.313 100.515 184.756 110.233C182.983 111.743 181.275 110.955 182.063 108.986C184.69 102.485 190.534 87.8416 187.776 84.3614V84.3614Z" fill="#FF9900"/>
</svg>
