<?xml version="1.0" encoding="utf-8"?>
<!-- Generator: Adobe Illustrator 22.0.1, SVG Export Plug-In . SVG Version: 6.00 Build 0)  -->
<svg version="1.1" xmlns="http://www.w3.org/2000/svg" xmlns:xlink="http://www.w3.org/1999/xlink" x="0px" y="0px"
	 viewBox="0 0 1178.3 236.2" style="enable-background:new 0 0 1178.3 236.2;" xml:space="preserve">
<style type="text/css">
	.st0{fill:#FF576B;}
	.st1{fill:#6D6E71;}
	.st2{fill:#FFFFFF;}
	.st3{fill:url(#SVGID_1_);}
	.st4{fill:url(#SVGID_2_);}
	.st5{fill:#2BEDA7;}
	.st6{fill:url(#SVGID_3_);}
	.st7{fill:url(#SVGID_4_);}
	.st8{fill:url(#SVGID_5_);}
	.st9{fill:url(#SVGID_6_);}
	.st10{fill:url(#SVGID_7_);}
	.st11{fill:url(#SVGID_8_);}
	.st12{fill:url(#SVGID_9_);}
	.st13{fill:url(#SVGID_10_);}
	.st14{fill:url(#SVGID_11_);}
	.st15{fill:url(#SVGID_12_);}
	.st16{fill:url(#SVGID_13_);}
	.st17{fill:url(#SVGID_14_);}
	.st18{fill:url(#SVGID_15_);}
	.st19{fill:url(#SVGID_16_);}
	.st20{fill:url(#SVGID_17_);}
	.st21{fill:url(#SVGID_18_);}
	.st22{fill:url(#SVGID_19_);}
	.st23{fill:url(#SVGID_20_);}
	.st24{fill:url(#SVGID_21_);}
	.st25{fill:url(#SVGID_22_);}
	.st26{fill:url(#SVGID_23_);}
	.st27{fill:url(#SVGID_24_);}
	.st28{filter:url(#Adobe_OpacityMaskFilter);}
	.st29{mask:url(#mask-2_6_);}
	.st30{fill:#018AFD;}
	.st31{fill:#00A2FD;}
	.st32{fill:#06C0FD;}
	.st33{fill:#03B5FD;}
	.st34{fill:#0074FD;}
	.st35{fill:#005CFD;}
	.st36{filter:url(#Adobe_OpacityMaskFilter_1_);}
	.st37{mask:url(#mask-4_6_);fill:#003CFD;}
	.st38{fill:#0E13FD;}
	.st39{filter:url(#Adobe_OpacityMaskFilter_2_);}
	.st40{mask:url(#mask-2_5_);fill:#FFFFFF;}
	.st41{filter:url(#Adobe_OpacityMaskFilter_3_);}
	.st42{mask:url(#mask-4_5_);fill:#003CFD;}
	.st43{filter:url(#Adobe_OpacityMaskFilter_4_);}
	.st44{mask:url(#mask-2_1_);fill:#FFFFFF;}
	.st45{filter:url(#Adobe_OpacityMaskFilter_5_);}
	.st46{mask:url(#mask-4_4_);fill:#FFFFFF;}
	.st47{fill:#018BFE;}
	.st48{fill:#02C2FE;}
	.st49{fill:#04B6FE;}
	.st50{fill:#0095FE;}
	.st51{fill:#0074FE;}
	.st52{fill:#005CFE;}
	.st53{fill:#003DFE;}
	.st54{fill:#0E13FE;}
	.st55{filter:url(#Adobe_OpacityMaskFilter_6_);}
	.st56{mask:url(#mask-2_7_);}
	.st57{filter:url(#Adobe_OpacityMaskFilter_7_);}
	.st58{mask:url(#mask-2_2_);fill:#FFFFFF;}
	.st59{filter:url(#Adobe_OpacityMaskFilter_8_);}
	.st60{mask:url(#mask-4_3_);fill:#003CFD;}
	.st61{filter:url(#Adobe_OpacityMaskFilter_9_);}
	.st62{mask:url(#mask-4_7_);fill:#003CFD;}
	.st63{filter:url(#Adobe_OpacityMaskFilter_10_);}
	.st64{mask:url(#mask-4_1_);fill:#003CFD;}
	.st65{fill:url(#SVGID_25_);}
	.st66{fill:url(#SVGID_26_);}
	.st67{fill:url(#SVGID_27_);}
	.st68{fill:url(#SVGID_28_);}
	.st69{fill:url(#SVGID_29_);}
	.st70{fill:url(#SVGID_30_);}
	.st71{fill:url(#SVGID_31_);}
	.st72{fill:url(#SVGID_32_);}
	.st73{fill:url(#SVGID_33_);}
	.st74{fill:url(#SVGID_34_);}
	.st75{fill:url(#SVGID_35_);}
	.st76{fill:url(#SVGID_36_);}
	.st77{fill:url(#SVGID_37_);}
	.st78{fill:url(#SVGID_38_);}
	.st79{fill:url(#SVGID_39_);}
	.st80{fill:url(#SVGID_40_);}
	.st81{fill:url(#SVGID_41_);}
	.st82{fill:url(#SVGID_42_);}
	.st83{fill:url(#SVGID_43_);}
	.st84{fill:url(#SVGID_44_);}
	.st85{fill:url(#SVGID_45_);}
	.st86{fill:url(#SVGID_46_);}
	.st87{fill:url(#SVGID_47_);}
	.st88{fill:url(#SVGID_48_);}
	.st89{fill:url(#SVGID_49_);}
	.st90{fill:url(#SVGID_50_);}
	.st91{fill:url(#SVGID_51_);}
	.st92{fill:url(#SVGID_52_);}
	.st93{fill:url(#SVGID_53_);}
	.st94{fill:url(#SVGID_54_);}
	.st95{fill:url(#SVGID_55_);}
	.st96{fill:url(#SVGID_56_);}
	.st97{fill:url(#SVGID_57_);}
	.st98{fill:url(#SVGID_58_);}
	.st99{fill:url(#SVGID_59_);}
	.st100{fill:url(#SVGID_60_);}
	.st101{fill:url(#SVGID_61_);}
	.st102{fill:url(#SVGID_62_);}
	.st103{fill:url(#SVGID_63_);}
	.st104{fill:url(#SVGID_64_);}
	.st105{fill:#BDBDBD;}
	.st106{fill:url(#SVGID_65_);}
	.st107{fill:url(#SVGID_66_);}
	.st108{fill:url(#SVGID_67_);}
	.st109{fill:url(#SVGID_68_);}
	.st110{fill:url(#SVGID_69_);}
	.st111{fill:url(#SVGID_70_);}
	.st112{fill:url(#SVGID_71_);}
	.st113{fill:url(#SVGID_72_);}
	.st114{fill:url(#SVGID_73_);}
	.st115{fill:url(#SVGID_74_);}
	.st116{fill:url(#SVGID_75_);}
	.st117{fill:url(#SVGID_76_);}
	.st118{fill:url(#SVGID_77_);}
	.st119{fill:url(#SVGID_78_);}
	.st120{fill:url(#SVGID_79_);}
	.st121{fill:url(#SVGID_80_);}
	.st122{display:none;}
	.st123{display:inline;}
</style>
<g id="Layer_1">
	<g id="working-state_1_" transform="translate(-109.000000, -9.000000)">
		<g id="buoyant_black_2_" transform="translate(109.000000, 9.000000)">
			<g id="angles_2_" transform="translate(0.000000, 0.734694)">
				<path id="Fill-1_3_" d="M321.4,160.4c12.5,0,20-7.1,20-18.7c0-9.8-6.8-18.4-20-18.4h-35.6v37.1H321.4z M320.5,107.6
					c12,0,18.6-7.5,18.6-17.3s-6.6-17.5-18.6-17.5h-34.7v34.8H320.5z M267.9,166.6V66.5c0-6.1,3.4-9.5,9.7-9.5h46.3
					c21.3,0,33.6,13,33.6,30.3c0,15-9.8,25-20.7,27.3c12.7,2,23,14.8,23,29.3c0,18.7-12.5,32.1-34.5,32.1h-47.7
					C271.3,176.1,267.9,172.7,267.9,166.6L267.9,166.6z"/>
				<path id="Fill-3_3_" d="M399.8,65.1c0-4.8,4.1-8.9,9.1-8.9c5,0,8.9,4.1,8.9,8.9V129c0,20.3,11.3,33.4,32.2,33.4
					c20.9,0,32-13,32-33.4V65.1c0-4.8,4.1-8.9,9.1-8.9c5,0,8.9,4.1,8.9,8.9v64.2c0,29.6-16.6,48.9-50,48.9
					c-33.4,0-50.2-19.5-50.2-48.7V65.1z"/>
				<path id="Fill-5_3_" d="M599.5,71c-25.5,0-41.6,19.5-41.6,45.7c0,26.1,16.1,45.7,41.6,45.7c25.2,0,41.6-19.6,41.6-45.7
					C641.2,90.4,624.7,71,599.5,71 M599.5,55.1c35.6,0,60,26.2,60,61.6c0,35.3-24.5,61.6-60,61.6s-60-26.2-60-61.6
					C539.5,81.3,564,55.1,599.5,55.1"/>
				<path id="Fill-7_3_" d="M782.3,69.4l-38.2,56.9v41.8c0,4.8-3.9,8.9-8.9,8.9c-5,0-8.9-4.1-8.9-8.9v-41.8l-38.4-56.7
					c-0.9-1.2-1.4-3-1.4-4.8c0-4.8,3.9-8.6,8.6-8.6c3,0,5.7,1.4,7.3,3.9l32.9,50.3l32.7-50.3c1.6-2.3,4.3-3.9,7.3-3.9
					c4.6,0,8.6,3.7,8.6,8.6C783.8,66.5,783.2,68.1,782.3,69.4"/>
				<path id="Fill-9_3_" d="M881,135.6l-23.8-63l-23.6,63H881z M911.9,167.9c0,5-4.1,9.1-9.1,9.1c-3.9,0-7.3-2.5-8.4-5.7l-7.5-19.8
					h-59.1l-7.5,19.8c-1.3,3.2-4.6,5.7-8.4,5.7c-5,0-9.1-4.1-9.1-9.1c0-1.1,0.4-2.3,0.7-3.4l39.3-98.3c2.1-5.7,7.9-10,14.5-10
					c6.8,0,12.3,4.3,14.6,10l39.3,98.3C911.5,165.4,911.9,166.6,911.9,167.9L911.9,167.9z"/>
				<path id="Fill-11_3_" d="M1029.1,172.4l-63.2-87.6v83.3c0,4.8-3.9,8.9-8.8,8.9c-5,0-9.1-4.1-9.1-8.9V68
					c0-6.4,5.2-11.8,11.8-11.8c3.8,0,7.3,1.8,9.5,4.8l62,85.3V65.1c0-4.8,3.9-8.9,8.8-8.9c5,0,9.1,4.1,9.1,8.9v100.8
					c0,6.1-5,11.1-11.1,11.1C1034.2,177,1031,175.4,1029.1,172.4"/>
				<g id="Group-15_3_" transform="translate(158.481116, 8.011964)">
					<defs>
						<filter id="Adobe_OpacityMaskFilter" filterUnits="userSpaceOnUse" x="926.2" y="49.1" width="93.6" height="119.9">
							<feColorMatrix  type="matrix" values="1 0 0 0 0  0 1 0 0 0  0 0 1 0 0  0 0 0 1 0"/>
						</filter>
					</defs>
					<mask maskUnits="userSpaceOnUse" x="926.2" y="49.1" width="93.6" height="119.9" id="mask-2_6_">
						<g class="st28">
							<polygon id="path-1_6_" class="st2" points="1019.8,49.1 1019.8,169 926.2,169 926.2,49.1 							"/>
						</g>
					</mask>
					<path id="Fill-13_3_" class="st29" d="M964,160.1V64.8h-30c-4.3,0-7.9-3.4-7.9-7.7c0-4.5,3.6-8,7.9-8h77.7c4.3,0,8,3.6,8,8
						c0,4.3-3.8,7.7-8,7.7h-29.8v95.3c0,4.8-4.1,8.9-8.9,8.9C968,169,964,164.9,964,160.1"/>
				</g>
				<path id="Fill-16_2_" class="st30" d="M127,166c0,18.9,0,37.8,0,56.7c0,2.5-0.7,4.1-3,5.3c-3.8,2-7.4,4.2-11.1,6.4
					c-3.4,1.9-4.1,1.6-4.1-2.3c0-35.7,0-71.3,0-107c0-2.1,0-4.1-0.6-6.1c-1-2.9-3.1-4.8-5.6-6.3C80,99.6,57.4,86.6,34.8,73.6
					C25.9,68.5,17,63.3,8.1,58.2c-2.6-1.5-2.6-2.4-0.1-3.9c4.3-2.5,8.6-4.9,12.8-7.4c1.3-0.8,2.3-0.8,3.7,0
					c33.1,19.1,66.2,38.2,99.4,57.2c2.3,1.3,3.1,2.8,3.1,5.4C126.9,128.3,127,147.1,127,166"/>
				<path id="Fill-18_2_" class="st31" d="M154.1,150.2c0,18.8-0.1,37.6,0.1,56.5c0,2.9-0.9,4.6-3.5,5.9c-4,2-7.8,4.4-11.7,6.7
					c-2,1.1-2.9,0.6-3-1.6c0-0.7,0-1.5,0-2.2c0-35.5-0.1-71,0.1-106.5c0-5.7-2.1-9.5-7.1-12.4C98,78.7,67.1,60.9,36.3,43
					c-1.1-0.6-2.8-0.8-2.8-2.5c0-1.6,1.8-1.8,2.8-2.5c4-2.4,8.1-4.6,12-7c1.2-0.7,2.1-0.6,3.3,0c32.6,18.8,65.2,37.7,97.9,56.4
					c3.6,2.1,4.7,4.3,4.6,8.3C153.9,113.9,154.1,132,154.1,150.2L154.1,150.2z"/>
				<path id="Fill-20_2_" class="st32" d="M208.6,118.9c0,19,0,37.9,0,56.9c0,2.3-0.6,3.8-2.8,5c-3.9,2-7.7,4.4-11.5,6.6
					c-0.9,0.5-1.9,1.5-3,0.8c-1.3-0.7-0.9-2.1-0.9-3.2c0-35.9-0.1-71.9,0-107.8c0-5.5-2.2-9.2-7-12c-29.2-16.7-58.4-33.6-87.6-50.4
					c-2.2-1.3-4.5-2.6-6.7-3.9c-1.9-1.1-1.9-2.1,0-3.2c4.5-2.7,9.1-5.2,13.6-7.9c1.2-0.7,2.1-0.6,3.3,0.1
					c33.4,19.3,66.9,38.6,100.4,57.8c1.6,0.9,2.2,2,2.2,3.9C208.6,80.6,208.6,99.8,208.6,118.9"/>
				<path id="Fill-22_2_" class="st33" d="M181.4,134.6c0,19,0,37.9,0,56.9c0,2.5-0.8,3.9-3,5.1c-4.1,2.1-8.1,4.6-12.1,6.9
					c-2.3,1.3-3,0.9-3-1.8c0-35.9-0.1-71.8,0.1-107.6c0-6.2-2.4-10.4-7.8-13.5c-31.1-17.8-62-35.6-93-53.5c-2.6-1.5-2.7-2.7-0.1-4.2
					c4.3-2.5,8.7-5,13-7.5c1.2-0.7,2.1-0.6,3.3,0.1c30.8,17.8,61.7,35.6,92.5,53.4c2.5,1.4,4.9,3,7.5,4.3c1.9,1,2.6,2.3,2.6,4.4
					C181.4,96.5,181.4,115.5,181.4,134.6"/>
				<path id="Fill-24_2_" class="st34" d="M99.7,178.2v52.9c0,0.6,0,1.2,0,1.8c-0.1,2.8-0.8,3.2-3.2,1.8c-4.2-2.4-8.4-4.9-12.7-7.2
					c-1.6-0.9-2.2-1.9-2.2-3.7c0.1-27.7,0-55.4,0.2-83.1c0-5.9-2.2-10-7.4-13c-24.4-13.9-48.7-28-73-42c-1-0.6-1.3-1.2-1.3-2.2
					c0-5.2,0-10.5,0-15.7c0-2.7,0.8-3.2,3.2-1.8c18,10.4,36,20.8,54,31.2c13.5,7.8,26.9,15.6,40.4,23.3c1.7,1,2,2.1,2,3.8
					C99.7,142.2,99.7,160.2,99.7,178.2"/>
				<path id="Fill-26_2_" class="st35" d="M72.6,178.6c0,12.7,0,25.4,0,38.1c0,3.4-0.6,3.8-3.5,2.1c-4.2-2.4-8.2-4.9-12.5-7.2
					c-1.7-0.9-2.2-2-2.2-3.8c0.1-17.3-0.1-34.5,0.2-51.8c0.1-5.8-2.1-9.7-7.2-12.6c-15.2-8.5-30.1-17.3-45.2-25.9
					c-1.5-0.9-2-1.8-2-3.5c0.1-4.8,0-9.6,0-14.4c0-1-0.3-2.2,0.8-2.8c1.1-0.6,2,0.2,2.8,0.7c22,12.7,44,25.4,66.1,38
					c2.2,1.2,2.8,2.9,2.8,5.2C72.6,153.4,72.6,166,72.6,178.6L72.6,178.6z"/>
				<g id="Group-30_2_" transform="translate(0.000000, 18.199719)">
					<defs>
						<filter id="Adobe_OpacityMaskFilter_1_" filterUnits="userSpaceOnUse" x="0" y="109.9" width="45.4" height="76">
							<feColorMatrix  type="matrix" values="1 0 0 0 0  0 1 0 0 0  0 0 1 0 0  0 0 0 1 0"/>
						</filter>
					</defs>
					<mask maskUnits="userSpaceOnUse" x="0" y="109.9" width="45.4" height="76" id="mask-4_6_">
						<g class="st36">
							<polygon id="path-3_6_" class="st2" points="0,185.8 0,109.9 45.4,109.9 45.4,185.8 							"/>
						</g>
					</mask>
					<path id="Fill-28_2_" class="st37" d="M45.4,160.2c0,7.7,0,15.3,0,23c0,2.8-0.9,3.3-3.3,1.9c-4.3-2.5-8.7-5-13-7.5
						c-1.3-0.7-1.8-1.7-1.8-3.2c0.1-7.2,0-14.3,0.1-21.5c0.1-5.4-2.2-9.3-6.9-11.9c-5.9-3.3-11.8-6.7-17.7-10
						c-2-1.1-2.9-2.4-2.7-4.9c0.3-4.5,0.1-9,0.1-13.5c0-0.9-0.3-2,0.7-2.6c1-0.7,1.9,0,2.9,0.5c13.3,7.7,26.6,15.4,40,23.1
						c1.3,0.8,1.8,1.7,1.8,3.2C45.4,144.7,45.4,152.4,45.4,160.2"/>
				</g>
				<path id="Fill-31_2_" class="st38" d="M0.2,169.5c0-2.7,0-5.3,0-8c0-2,0.9-2.7,2.6-1.8c4.8,2.7,9.6,5.5,14.3,8.2
					c0.9,0.5,1.1,1.4,1.1,2.5c0,5.2,0,10.3-0.1,15.5c0,2.6-0.9,3.1-3.1,1.8c-4.5-2.5-8.9-5.2-13.4-7.7c-1.2-0.7-1.6-1.5-1.5-2.9
					C0.2,174.6,0.2,172.1,0.2,169.5"/>
			</g>
		</g>
	</g>
</g>
<g id="nyt_x5F_exporter_x5F_info" class="st122">
</g>
</svg>
