<svg aria-label="DeepL" width="545" height="184" viewBox="0 0 545 184" class="h-20 w-auto" fill="none" xmlns="http://www.w3.org/2000/svg"><path d="M203.948 47.891h32.093c7.831 0 14.788 1.527 20.871 4.582 6.083 2.985 10.802 7.254 14.158 12.807 3.356 5.484 5.035 11.836 5.035 19.056 0 7.22-1.679 13.606-5.035 19.159-3.356 5.484-8.075 9.753-14.158 12.808-6.083 2.985-13.04 4.477-20.871 4.477h-32.093V47.891zm31.463 61.435c5.384 0 10.104-1.006 14.159-3.019 4.125-2.083 7.272-4.999 9.439-8.747 2.238-3.818 3.356-8.226 3.356-13.224 0-4.998-1.118-9.372-3.356-13.12-2.167-3.818-5.314-6.734-9.439-8.747-4.055-2.083-8.775-3.124-14.159-3.124h-17.829v49.981h17.829zM341.987 93.29c0 .903-.07 2.187-.21 3.853h-43.944c.769 4.096 2.761 7.359 5.978 9.788 3.286 2.361 7.341 3.541 12.166 3.541 6.153 0 11.222-2.013 15.207-6.04l7.027 8.018c-2.517 2.985-5.698 5.241-9.544 6.768-3.846 1.528-8.181 2.291-13.005 2.291-6.153 0-11.572-1.215-16.256-3.644-4.685-2.43-8.321-5.797-10.908-10.101-2.517-4.373-3.775-9.302-3.775-14.786 0-5.414 1.223-10.274 3.67-14.578 2.518-4.373 5.979-7.775 10.383-10.204 4.405-2.43 9.37-3.645 14.893-3.645 5.454 0 10.313 1.215 14.579 3.645 4.335 2.36 7.691 5.727 10.068 10.1 2.447 4.304 3.671 9.302 3.671 14.995zm-28.318-18.326c-4.195 0-7.761 1.25-10.697 3.749-2.867 2.43-4.615 5.692-5.244 9.788h31.778c-.559-4.026-2.272-7.29-5.139-9.788-2.867-2.5-6.433-3.749-10.698-3.749zM407.229 93.29c0 .903-.07 2.187-.21 3.853h-43.944c.769 4.096 2.762 7.359 5.978 9.788 3.286 2.361 7.341 3.541 12.166 3.541 6.153 0 11.222-2.013 15.207-6.04l7.027 8.018c-2.517 2.985-5.698 5.241-9.544 6.768-3.845 1.528-8.18 2.291-13.005 2.291-6.153 0-11.571-1.215-16.256-3.644-4.685-2.43-8.32-5.797-10.907-10.101-2.518-4.373-3.776-9.302-3.776-14.786 0-5.414 1.223-10.274 3.671-14.578 2.517-4.373 5.978-7.775 10.383-10.204 4.405-2.43 9.369-3.645 14.893-3.645 5.453 0 10.313 1.215 14.578 3.645 4.335 2.36 7.691 5.727 10.068 10.1 2.447 4.304 3.671 9.302 3.671 14.995zm-28.317-18.326c-4.196 0-7.762 1.25-10.698 3.749-2.867 2.43-4.615 5.692-5.244 9.788h31.778c-.559-4.026-2.272-7.29-5.139-9.788-2.866-2.5-6.432-3.749-10.697-3.749zM450.866 64.551c5.454 0 10.313 1.18 14.578 3.54 4.335 2.361 7.726 5.693 10.173 9.997 2.448 4.304 3.671 9.267 3.671 14.89 0 5.623-1.223 10.621-3.671 14.995-2.447 4.304-5.838 7.636-10.173 9.996-4.265 2.36-9.124 3.54-14.578 3.54-7.551 0-13.529-2.499-17.934-7.497v26.969h-13.11V65.176h12.48v7.29a20.357 20.357 0 017.971-5.936c3.217-1.32 6.747-1.979 10.593-1.979zm-1.468 45.817c4.824 0 8.775-1.597 11.851-4.79 3.146-3.194 4.72-7.393 4.72-12.6 0-5.206-1.574-9.406-4.72-12.6-3.076-3.192-7.027-4.79-11.851-4.79-3.147 0-5.978.73-8.496 2.188-2.517 1.388-4.509 3.401-5.978 6.039-1.468 2.638-2.202 5.692-2.202 9.163s.734 6.526 2.202 9.163c1.469 2.638 3.461 4.686 5.978 6.144 2.518 1.388 5.349 2.083 8.496 2.083zM492.98 47.891h13.634v61.435H545v11.454h-52.02V47.891z" fill="currentColor"></path><path fill-rule="evenodd" clip-rule="evenodd" d="M78.98 1.415l62.984 36.916c3.252 1.888 4.998 5.2 4.998 8.98v72.834c0 3.775-1.746 7.093-4.998 8.98l-39.99 22.948c-1.372.975-2 3.248-2 4.988V184a52000.952 52000.952 0 00-79.69-46.053l-15.285-8.822c-3.253-1.887-4.999-5.2-4.999-8.98V47.311c0-3.672 1.746-7.092 4.999-8.98L67.983 1.416c3.252-1.887 7.744-1.887 10.997 0zM66.545 59.797c.285-.926.438-1.909.438-2.928 0-5.51-4.476-9.977-9.998-9.977-5.521 0-9.997 4.467-9.997 9.977 0 5.51 4.476 9.978 9.997 9.978a9.975 9.975 0 006.944-2.8L91.414 80.88a9.956 9.956 0 00-.437 2.928c0 5.51 4.476 9.977 9.997 9.977 5.522 0 9.998-4.467 9.998-9.977 0-5.51-4.476-9.977-9.998-9.977a9.975 9.975 0 00-6.943 2.798L66.545 59.797zm-9.56 60.927c5.522 0 9.998-4.467 9.998-9.977a9.956 9.956 0 00-.438-2.928l25.468-15.597-4.778-2.926-23.306 14.272a9.974 9.974 0 00-6.944-2.799c-5.521 0-9.997 4.467-9.997 9.978 0 5.51 4.476 9.977 9.997 9.977z" fill="currentColor"></path></svg>
