<?xml version="1.0" encoding="UTF-8" standalone="no"?>
<svg
   xmlns:dc="http://purl.org/dc/elements/1.1/"
   xmlns:cc="http://creativecommons.org/ns#"
   xmlns:rdf="http://www.w3.org/1999/02/22-rdf-syntax-ns#"
   xmlns:svg="http://www.w3.org/2000/svg"
   xmlns="http://www.w3.org/2000/svg"
   xmlns:xlink="http://www.w3.org/1999/xlink"
   xmlns:sodipodi="http://sodipodi.sourceforge.net/DTD/sodipodi-0.dtd"
   xmlns:inkscape="http://www.inkscape.org/namespaces/inkscape"
   width="155"
   height="44"
   version="1.1"
   id="svg34"
   sodipodi:docname="nasdaq.svg"
   inkscape:version="0.92.4 5da689c313, 2019-01-14">
  <metadata
     id="metadata38">
    <rdf:RDF>
      <cc:Work
         rdf:about="">
        <dc:format>image/svg+xml</dc:format>
        <dc:type
           rdf:resource="http://purl.org/dc/dcmitype/StillImage" />
      </cc:Work>
    </rdf:RDF>
  </metadata>
  <sodipodi:namedview
     pagecolor="#ffffff"
     bordercolor="#666666"
     borderopacity="1"
     objecttolerance="10"
     gridtolerance="10"
     guidetolerance="10"
     inkscape:pageopacity="0"
     inkscape:pageshadow="2"
     inkscape:window-width="1920"
     inkscape:window-height="1163"
     id="namedview36"
     showgrid="false"
     inkscape:zoom="2.0967742"
     inkscape:cx="78.453846"
     inkscape:cy="22"
     inkscape:window-x="2560"
     inkscape:window-y="0"
     inkscape:window-maximized="1"
     inkscape:current-layer="svg34" />
  <defs
     id="defs5">
    <path
       id="a"
       d="M0 0h15.027v24H0z" />
    <path
       id="c"
       d="M0 .016h27V33H0z" />
    <path
       id="e"
       d="M0 0h27v33.797H0z" />
    <mask
       id="f"
       fill="#fff">
      <use
         xlink:href="#e"
         id="use25"
         x="0"
         y="0"
         width="100%"
         height="100%" />
    </mask>
    <mask
       id="d"
       fill="#fff">
      <use
         xlink:href="#c"
         id="use16"
         x="0"
         y="0"
         width="100%"
         height="100%" />
    </mask>
    <mask
       id="b"
       fill="#fff">
      <use
         xlink:href="#a"
         id="use9"
         x="0"
         y="0"
         width="100%"
         height="100%" />
    </mask>
  </defs>
  <g
     id="g873"
     transform="matrix(0.80391468,0,0,0.80391468,15.59254,4.389445)">
    <path
       d="m 114.297,33.328 c -5.293,0 -8.582,-3.066 -8.582,-8.008 0,-5.129 3.035,-8.32 7.922,-8.32 h 0.41 c 0.613,0 1.457,0.02 2.61,0.164 v -6.191 h 3.452 V 32.77 c 0,0 -3.28,0.558 -5.812,0.558 m -0.031,-13.61 c -3.344,0 -4.97,1.805 -4.97,5.516 0,3.332 1.962,5.403 5.114,5.403 0.606,0 1.3,-0.04 2.246,-0.121 V 19.94 c -0.945,-0.152 -1.707,-0.222 -2.39,-0.222 M 67.012,32.828 57.687,16.555 57.684,32.828 h -3.25 V 12.227 h 4.55 l 9.325,16.128 -0.004,-16.128 h 3.293 v 20.601 z m 29.703,0.317 c -1.57,0 -3.207,-0.176 -5.156,-0.551 l -0.211,-0.04 v -2.878 l 0.308,0.066 c 1.719,0.367 3.203,0.68 4.688,0.68 1.199,0 3.992,-0.188 3.992,-1.953 0,-1.48 -1.93,-1.852 -3.48,-2.149 L 96.758,26.3 c -0.29,-0.054 -0.563,-0.109 -0.793,-0.167 -2.274,-0.59 -4.7,-1.477 -4.7,-4.524 0,-2.972 2.352,-4.675 6.454,-4.675 1.969,0 3.398,0.21 4.547,0.382 l 0.558,0.082 v 2.793 l -0.297,-0.054 c -1.3,-0.239 -2.824,-0.485 -4.289,-0.485 -1.629,0 -3.562,0.305 -3.562,1.754 0,1.203 1.582,1.547 3.414,1.946 2.562,0.554 5.738,1.25 5.738,4.746 0,3.207 -2.59,5.047 -7.113,5.047 m 33.085,0 c -3.573,0 -6.882,-0.63 -6.882,-5.192 0,-4.965 5.117,-4.965 8.176,-4.965 0.304,0 1.742,0.067 2.183,0.086 -0.004,-2.785 -0.039,-3.449 -4.078,-3.449 -1.601,0 -3.379,0.316 -4.949,0.598 l -0.3,0.054 v -2.75 l 0.202,-0.043 c 1.82,-0.37 3.575,-0.55 5.364,-0.55 3.914,0 7.23,0.394 7.23,5.25 v 10.59 l -0.238,0.027 c -2.711,0.304 -4.863,0.344 -6.707,0.344 m 1.207,-7.7 c -2.95,0 -4.778,0.434 -4.778,2.594 0,2.5 2.332,2.707 4.52,2.707 0.816,0 2.285,-0.105 2.734,-0.137 v -5.078 c -0.632,-0.027 -2.277,-0.086 -2.476,-0.086 m -49.645,7.7 c -3.578,0 -6.886,-0.63 -6.886,-5.192 0,-4.965 5.117,-4.965 8.175,-4.965 0.305,0 1.746,0.067 2.188,0.086 -0.004,-2.785 -0.043,-3.449 -4.082,-3.449 -1.602,0 -3.38,0.316 -4.95,0.598 l -0.3,0.054 v -2.75 l 0.207,-0.043 a 26.55,26.55 0 0 1 5.36,-0.55 c 3.913,0 7.23,0.394 7.23,5.25 v 10.59 l -0.239,0.027 c -2.71,0.304 -4.863,0.344 -6.703,0.344 m 1.203,-7.7 c -2.949,0 -4.773,0.434 -4.773,2.594 0,2.5 2.328,2.707 4.516,2.707 0.82,0 2.289,-0.105 2.738,-0.137 v -5.078 c -0.637,-0.027 -2.281,-0.086 -2.48,-0.086"
       id="path7"
       inkscape:connector-curvature="0"
       style="fill:#231f20;fill-rule:nonzero" />
    <path
       transform="translate(139,16)"
       style="fill:#231f20;fill-rule:nonzero"
       inkscape:connector-curvature="0"
       id="path12"
       mask="url(#b)"
       d="M 11.492,23.828 V 17.07 c -1.347,0.188 -2.062,0.188 -2.64,0.188 -1.368,0 -2.887,-0.297 -4.063,-0.793 C 2.156,15.37 0.586,12.59 0.586,9.023 0.586,7.243 1.02,3.988 3.922,2.234 5.379,1.364 7.098,0.992 9.684,0.992 c 0.925,0 2.175,0.07 3.382,0.14 l 1.961,0.102 V 22.262 Z M 9.426,3.711 C 5.918,3.71 4.14,5.5 4.14,9.023 c 0,4.536 2.652,5.489 4.882,5.489 0.543,0 1.153,0 2.504,-0.172 V 3.809 C 10.468,3.739 9.979,3.711 9.425,3.711 Z" />
    <path
       transform="translate(25)"
       style="fill:#0996c7;fill-rule:nonzero"
       inkscape:connector-curvature="0"
       id="path19"
       mask="url(#d)"
       d="M 14.012,0.016 2.594,31.386 a 2.19,2.19 0 0 1 -1.836,1.427 v 0.015 h 12.07 c 0.945,0 1.754,-0.601 2.055,-1.441 L 26.305,0.016 Z" />
    <path
       d="m 24.773,32.352 c 0.7,0 1.313,-0.348 1.688,-0.875 0.039,-0.055 0.176,-0.247 0.273,-0.508 l 4.188,-11.512 -2.45,-6.723 a 2.07,2.07 0 0 0 -3.597,-0.398 c -0.04,0.055 -0.203,0.3 -0.273,0.508 l -4.188,11.508 2.461,6.75 a 2.067,2.067 0 0 0 1.898,1.25"
       id="path23"
       inkscape:connector-curvature="0"
       style="fill:#0996c7;fill-rule:nonzero" />
    <path
       transform="translate(-1,10)"
       style="fill:#0996c7;fill-rule:nonzero"
       inkscape:connector-curvature="0"
       id="path28"
       mask="url(#f)"
       d="M 26.668,0.984 H 14.465 c -0.945,0 -1.754,0.598 -2.059,1.442 L 0.988,33.796 H 13.281 L 24.7,2.427 a 2.187,2.187 0 0 1 1.968,-1.439 z" />
  </g>
</svg>
