<?xml version="1.0" encoding="UTF-8" standalone="no"?>
<svg id="Ebene_1" version="1.1" viewBox="0 0 1383.8133 332.29345" sodipodi:docname="logo.svg" width="1383.8132" height="332.29343" inkscape:version="1.3.2 (091e20e, 2023-11-25)" xmlns:inkscape="http://www.inkscape.org/namespaces/inkscape" xmlns:sodipodi="http://sodipodi.sourceforge.net/DTD/sodipodi-0.dtd" xmlns="http://www.w3.org/2000/svg" xmlns:svg="http://www.w3.org/2000/svg">
  <sodipodi:namedview id="namedview25" pagecolor="#ffffff" bordercolor="#000000" borderopacity="0.25" inkscape:showpageshadow="2" inkscape:pageopacity="0.0" inkscape:pagecheckerboard="0" inkscape:deskcolor="#d1d1d1" inkscape:zoom="0.51300476" inkscape:cx="727.08877" inkscape:cy="158.86792" inkscape:window-width="1920" inkscape:window-height="972" inkscape:window-x="1728" inkscape:window-y="25" inkscape:window-maximized="1" inkscape:current-layer="Ebene_1"/>
  <!-- Generator: Adobe Illustrator 29.2.1, SVG Export Plug-In . SVG Version: 2.1.0 Build 116)  -->
  <defs id="defs1">
    <style id="style1">
      .st0 {
        fill: #004e5a;
      }
    </style>
  </defs>
  <g id="g21" transform="translate(-114.15138,-114.10625)">
    <path class="st0" d="m 539.49498,420.07176 h -16.95666 l -4.46264,12.94097 h -6.50206 l 16.192,-45.0053 h 6.62934 l 16.192,45.0053 h -6.56619 z m -8.47833,-25.88096 c 0,0 -1.0202,4.07982 -1.78486,6.37478 l -5.03589,14.27888 h 13.6415 l -4.97275,-14.27888 c -0.76465,-2.29496 -1.72072,-6.37478 -1.72072,-6.37478 z" id="path1"/>
    <path class="st0" d="m 592.71517,388.00743 h 15.74603 c 7.5864,0 13.06825,4.2071 13.06825,11.47382 0,4.39949 -2.16768,7.90508 -5.61012,9.68994 v 0.12728 c 4.7172,1.40302 7.39498,5.86468 7.39498,10.90155 0,8.47833 -6.56619,12.81271 -14.47028,12.81271 h -16.12886 z m 15.74603,18.93293 c 4.07982,0 6.62934,-2.86919 6.62934,-6.82075 0,-3.95254 -2.42224,-6.63032 -6.75662,-6.63032 h -9.30712 v 13.45107 z m 0.70152,20.59051 c 4.84447,0 7.71268,-3.0606 7.71268,-7.65052 0,-4.58894 -3.05962,-7.71269 -7.77682,-7.71269 H 599.0268 v 15.36321 z" id="path2"/>
    <path class="st0" d="m 641.41253,400.75699 h 5.99295 v 5.60914 c 0,1.33889 -0.12827,2.42224 -0.12827,2.42224 h 0.12827 c 1.46617,-4.7172 5.2273,-8.4142 10.19905,-8.4142 0.82879,0 1.59345,0.12728 1.59345,0.12728 v 6.12022 c 0,0 -0.82879,-0.19141 -1.78486,-0.19141 -3.95254,0 -7.5854,2.80506 -9.05157,7.58541 -0.57424,1.84899 -0.76565,3.82526 -0.76565,5.80153 v 13.19553 h -6.18337 z" id="path3"/>
    <path class="st0" d="m 691.7063,412.86819 h 1.40303 v -0.57325 c 0,-5.29143 -2.99647,-7.07629 -7.07629,-7.07629 -4.97275,0 -8.98843,3.12375 -8.98843,3.12375 l -2.54952,-4.52579 c 0,0 4.65306,-3.82526 12.04805,-3.82526 8.15964,0 12.74956,4.46264 12.74956,12.62228 v 20.3991 h -5.7374 v -3.05962 c 0,-1.46617 0.12727,-2.5505 0.12727,-2.5505 h -0.12727 c 0,0 -2.61365,6.37478 -10.32733,6.37478 -5.54599,0 -10.9647,-3.37831 -10.9647,-9.81722 0,-10.64503 14.02432,-11.09198 19.44303,-11.09198 z m -7.13943,15.93744 c 5.2273,0 8.6056,-5.48284 8.6056,-10.26319 v -1.0202 h -1.59344 c -4.65406,0 -13.06825,0.31869 -13.06825,6.11924 0,2.61365 2.0404,5.16415 6.05609,5.16415 z" id="path4"/>
    <path class="st0" d="m 718.09342,400.75699 h 5.99294 v 4.27025 c 0,1.27574 -0.12826,2.35909 -0.12826,2.35909 h 0.12826 c 1.27476,-2.80506 5.09904,-7.39498 12.1112,-7.39498 7.58639,0 11.09197,4.14395 11.09197,12.36772 v 20.65366 h -6.18336 v -19.25162 c 0,-4.52579 -0.95607,-8.09551 -6.11924,-8.09551 -4.90861,0 -8.86115,3.25103 -10.20004,7.9041 -0.38184,1.27476 -0.51011,2.74093 -0.51011,4.33536 v 15.10767 h -6.18336 z" id="path5"/>
    <path class="st0" d="m 778.58526,399.99135 c 7.45812,0 9.9445,5.10002 9.9445,5.10002 h 0.12727 c 0,0 -0.12727,-0.95607 -0.12727,-2.16768 v -14.91626 h 6.18337 v 45.0053 h -5.86468 v -3.05962 c 0,-1.27476 0.0631,-2.16768 0.0631,-2.16768 h -0.12728 c 0,0 -2.61365,5.99196 -10.58188,5.99196 -8.73288,0 -14.21573,-6.8839 -14.21573,-16.89253 0,-10.26319 6.05609,-16.89351 14.59856,-16.89351 z m 0.82879,28.43146 c 4.78034,0 9.30712,-3.37831 9.30712,-11.60208 0,-5.7374 -2.99647,-11.47382 -9.11571,-11.47382 -5.10002,0 -9.30712,4.2071 -9.30712,11.53795 0,7.01216 3.76014,11.53795 9.11571,11.53795 z" id="path6"/>
    <path class="st0" d="m 854.94646,399.99135 c 9.62581,0 17.40263,7.07629 17.40263,16.82938 0,9.81722 -7.77682,16.95666 -17.40263,16.95666 -9.62581,0 -17.40262,-7.13944 -17.40262,-16.95666 0,-9.75309 7.77681,-16.82938 17.40262,-16.82938 z m 0,28.43146 c 6.12023,0 11.09198,-4.84448 11.09198,-11.60208 0,-6.69347 -4.97175,-11.47382 -11.09198,-11.47382 -6.05609,0 -11.09198,4.78035 -11.09198,11.47382 0,6.7576 5.03589,11.60208 11.09198,11.60208 z" id="path7"/>
    <path class="st0" d="m 890.76896,406.17472 h -4.01667 v -4.97176 h 4.01667 v -1.5303 c 0,-10.64503 8.03236,-11.98392 12.11218,-11.98392 1.40204,0 2.35811,0.19141 2.35811,0.19141 v 5.29045 c 0,0 -0.63738,-0.12728 -1.59345,-0.12728 -2.35909,0 -6.7576,0.76466 -6.7576,6.7576 v 1.40204 h 7.64954 v 4.97176 h -7.64954 v 26.83801 h -6.11924 z" id="path8"/>
    <path class="st0" d="m 947.37042,423.06823 c 0,0 4.78034,4.84448 11.47381,4.84448 4.20809,0 7.77781,-2.35811 7.77781,-6.62934 0,-9.75309 -21.80212,-7.64954 -21.80212,-21.48245 0,-7.01314 6.05609,-12.55913 14.53442,-12.55913 8.35105,0 12.74956,4.52677 12.74956,4.52677 l -2.86821,5.2273 c 0,0 -4.14395,-3.88841 -9.88135,-3.88841 -4.78035,0 -8.15964,2.99549 -8.15964,6.56521 0,9.30712 21.80212,6.82075 21.80212,21.4193 0,6.94803 -5.35458,12.68543 -14.27986,12.68543 -9.56168,0 -14.91626,-5.92783 -14.91626,-5.92783 z" id="path9"/>
    <path class="st0" d="m 1005.3118,399.99135 c 8.0955,0 12.1112,4.7172 12.1112,4.7172 l -2.9324,4.33536 c 0,0 -3.4424,-3.697 -8.9243,-3.697 -6.50205,0 -11.21924,4.84448 -11.21924,11.47382 0,6.56619 4.71719,11.60208 11.41064,11.60208 5.992,0 9.9445,-4.33438 9.9445,-4.33438 l 2.4864,4.52579 c 0,0 -4.4626,5.16317 -12.8768,5.16317 -10.13595,0 -17.27638,-7.20357 -17.27638,-16.89253 0,-9.56266 7.14043,-16.89351 17.27638,-16.89351 z" id="path10"/>
    <path class="st0" d="m 1034.7585,388.00743 h 6.1834 v 16.51069 c 0,1.52932 -0.1273,2.6768 -0.1273,2.6768 h 0.1273 c 1.403,-3.12375 5.4828,-7.20357 11.9207,-7.20357 7.5864,0 11.092,4.14395 11.092,12.36772 v 20.65366 h -6.1834 v -19.25162 c 0,-4.52579 -0.956,-8.09551 -6.1192,-8.09551 -4.8455,0 -8.8612,3.31418 -10.2,7.96823 -0.3819,1.27476 -0.5101,2.74093 -0.5101,4.27123 v 15.10767 h -6.1834 z" id="path11"/>
    <path class="st0" d="m 1078.9942,400.75699 h 6.5662 l 6.6935,22.62993 c 0.5101,1.65758 0.7646,3.44244 0.8287,3.44244 h 0.1273 c 0,0 0.3187,-1.78486 0.8288,-3.44244 l 7.0122,-22.56678 h 5.6732 l 6.9491,22.56678 c 0.5101,1.65758 0.8919,3.44244 0.8919,3.44244 h 0.1283 c 0,0 0.2545,-1.78486 0.7646,-3.44244 l 6.7576,-22.62993 h 6.5021 l -10.3915,32.25574 h -6.8207 l -6.6935,-20.71779 c -0.5101,-1.65758 -0.8919,-3.50657 -0.8919,-3.50657 h -0.1283 c 0,0 -0.3818,1.84899 -0.8919,3.50657 l -6.6294,20.71779 h -6.8849 z" id="path12"/>
    <path class="st0" d="m 1161.0316,412.86819 h 1.4031 v -0.57325 c 0,-5.29143 -2.9965,-7.07629 -7.0763,-7.07629 -4.9728,0 -8.9885,3.12375 -8.9885,3.12375 l -2.5495,-4.52579 c 0,0 4.6531,-3.82526 12.0481,-3.82526 8.1596,0 12.7495,4.46264 12.7495,12.62228 v 20.3991 h -5.7374 v -3.05962 c 0,-1.46617 0.1273,-2.5505 0.1273,-2.5505 h -0.1273 c 0,0 -2.6136,6.37478 -10.3273,6.37478 -5.546,0 -10.9647,-3.37831 -10.9647,-9.81722 0,-10.64503 14.0243,-11.09198 19.443,-11.09198 z m -7.1394,15.93744 c 5.2273,0 8.6056,-5.48284 8.6056,-10.26319 v -1.0202 h -1.5934 c -4.6541,0 -13.0683,0.31869 -13.0683,6.11924 0,2.61365 2.0404,5.16415 6.0561,5.16415 z" id="path13"/>
    <path class="st0" d="m 1187.4187,400.75699 h 5.993 v 5.60914 c 0,1.33889 -0.1283,2.42224 -0.1283,2.42224 h 0.1283 c 1.4662,-4.7172 5.2273,-8.4142 10.199,-8.4142 0.8288,0 1.5935,0.12728 1.5935,0.12728 v 6.12022 c 0,0 -0.8288,-0.19141 -1.7849,-0.19141 -3.9525,0 -7.5854,2.80506 -9.0515,7.58541 -0.5743,1.84899 -0.7657,3.82526 -0.7657,5.80153 v 13.19553 h -6.1834 z" id="path14"/>
    <path class="st0" d="m 1218.525,429.44301 16.2552,-20.3991 c 1.403,-1.72171 2.6778,-2.99647 2.6778,-2.99647 v -0.12728 c 0,0 -1.0202,0.12728 -3.1238,0.12728 h -15.1087 v -5.29045 h 26.5835 v 3.56972 l -16.2561,20.46225 c -1.3389,1.65758 -2.741,2.93234 -2.741,2.93234 v 0.12826 c 0,0 1.0834,-0.12826 3.1869,-0.12826 h 16.3835 v 5.29143 h -27.8573 z" id="path15"/>
    <path class="st0" d="m 1290.616,388.00743 h 14.9162 c 13.7698,0 22.8214,8.22279 22.8214,22.43852 0,14.27986 -9.0516,22.56678 -22.8214,22.56678 h -14.9162 z m 14.4703,39.52344 c 10.1359,0 16.7652,-5.99294 16.7652,-17.08492 0,-11.02785 -6.6934,-16.95666 -16.7652,-16.95666 h -8.1597 v 34.04158 z" id="path16"/>
    <path class="st0" d="m 1346.0058,388.00743 h 6.2465 v 6.31065 h -6.2465 z m 0.063,12.74956 h 6.1833 v 32.25574 h -6.1833 z" id="path17"/>
    <path class="st0" d="m 1383.2314,441.04509 c 5.6101,0 10.2,-2.48637 10.2,-9.05256 v -2.35811 c 0,-1.0202 0.064,-2.0404 0.064,-2.0404 h -0.1282 c -1.9122,3.18788 -4.9086,5.03589 -9.5617,5.03589 -8.9884,0 -14.4072,-7.20357 -14.4072,-16.50971 0,-9.24397 5.1642,-16.12885 14.0885,-16.12885 7.7768,0 10.1359,4.78133 10.1359,4.78133 h 0.1273 c 0,0 -0.064,-0.44597 -0.064,-1.0202 v -2.99549 h 5.9288 v 30.91685 c 0,10.64601 -8.0955,14.72583 -16.2552,14.72583 -3.8894,0 -7.9051,-1.08335 -11.0288,-2.67778 l 2.0404,-4.84448 c 0,0 4.0157,2.16768 8.8602,2.16768 z m 10.3273,-24.86174 c 0,-8.4142 -4.0798,-10.83644 -9.1157,-10.83644 -5.6102,0 -8.7971,4.07982 -8.7971,10.64503 0,6.69347 3.5698,11.28339 9.3713,11.28339 4.4617,0 8.5415,-2.6768 8.5415,-11.09198 z" id="path18"/>
    <path class="st0" d="m 1418.7973,388.00743 h 6.2465 v 6.31065 h -6.2465 z m 0.063,12.74956 h 6.1833 v 32.25574 h -6.1833 z" id="path19"/>
    <path class="st0" d="m 1445.6324,406.17472 h -4.2071 v -4.97176 h 4.3985 v -9.30712 h 5.9919 v 9.30712 h 7.7778 v 4.97176 h -7.7778 v 14.34399 c 0,6.43793 4.5258,7.26672 6.8849,7.26672 0.8929,0 1.4662,-0.12728 1.4662,-0.12728 v 5.48186 c 0,0 -0.8919,0.12728 -2.1677,0.12728 -4.143,0 -12.3667,-1.27476 -12.3667,-12.04805 z" id="path20"/>
    <path class="st0" d="m 1477.0554,424.66168 c 0,0 3.6338,3.76113 9.243,3.76113 2.6777,0 5.3555,-1.40204 5.3555,-4.01569 0,-5.92881 -16.5748,-4.7172 -16.5748,-15.23593 0,-5.86468 5.2273,-9.17984 11.6662,-9.17984 7.0753,0 10.3905,3.56972 10.3905,3.56972 l -2.4864,4.65405 c 0,0 -2.8682,-2.86821 -7.9682,-2.86821 -2.6778,0 -5.2914,1.1465 -5.2914,3.95156 0,5.80153 16.5748,4.52677 16.5748,15.10865 0,5.35458 -4.5899,9.37027 -11.6662,9.37027 -7.9041,0 -12.2395,-4.7172 -12.2395,-4.7172 z" id="path21"/>
  </g>
  <polygon class="st0" points="700.54982,316.7628 723.40273,316.7628 723.40273,194.32559 771.53842,194.32559 771.53842,172.80837 652.22496,172.80837 652.22496,194.32559 700.54982,194.32559 " id="polygon21" transform="translate(-114.15138,-114.10625)"/>
  <polygon class="st0" points="1147.0936,236.33003 1141.4525,245.04231 1147.0621,253.42609 1186.8273,316.76168 1213.817,316.76168 1167.8995,244.31662 1211.1102,172.80725 1184.5077,172.80725 " id="polygon22" transform="translate(-114.15138,-114.10625)"/>
  <rect class="st0" x="1176.6243" y="58.702129" width="22.852913" height="143.95442" id="rect22"/>
  <path class="st0" d="m 742.80397,58.70212 -52.83104,143.95443 h 24.28291 l 16.45959,-46.09259 3.77204,-11.31921 17.96165,-48.72711 c 0.25222,-0.69839 0.5202,-1.46856 0.8017,-2.30967 0.27924,0.83857 0.54497,1.60621 0.79719,2.29897 l 38.2113,106.14961 H 816.5242 L 763.69317,58.70212 Z" id="path22"/>
  <path class="st0" d="m 451.06452,119.62755 -0.005,-0.001 c -14.81116,-6.26271 -26.50785,-11.20915 -26.50785,-22.66066 0,-8.98223 8.76464,-18.27354 23.43167,-18.27354 15.19624,0 25.96287,10.01701 26.0597,10.10737 l 4.42511,4.25592 11.45798,-19.54675 -2.56273,-2.64211 c -0.57425,-0.59086 -14.33599,-14.45647 -39.38006,-14.45647 -26.17006,0 -46.66742,17.98276 -46.66742,40.93954 0,25.08405 21.65487,34.42772 39.05804,41.93492 15.63537,6.74631 27.98513,12.07389 27.98513,24.91768 0,10.87247 -9.00785,18.46496 -21.90484,18.46496 -18.63949,0 -31.52522,-13.08643 -31.64232,-13.20691 l -3.88463,-4.07633 -13.7122,17.72997 2.63029,3.00103 c 0.67559,0.76904 16.91224,18.83287 46.22828,18.83287 26.80286,0 45.52342,-16.91251 45.52342,-41.12814 0,-27.05142 -22.47459,-36.55498 -40.53307,-44.19195 z m -1.04491,2.47069 v 0 -2.8e-4 z" id="path23"/>
  <polygon class="st0" points="1426.7671,194.32559 1426.7671,316.7628 1449.6222,316.7628 1449.6222,194.32559 1497.7579,194.32559 1497.7579,172.80837 1378.4445,172.80837 1378.4445,194.32559 " id="polygon23" transform="translate(-114.15138,-114.10625)"/>
  <polygon class="st0" points="235.41042,244.24285 250.3529,174.23525 411.18789,174.23525 424.01614,114.10625 193.7525,114.10625 165.98177,244.24285 " id="polygon24" transform="translate(-114.15138,-114.10625)"/>
  <polygon class="st0" points="126.97597,282.18971 114.15138,342.31871 344.94633,342.31871 372.80501,211.77906 303.37635,211.77906 288.34959,282.18971 " id="polygon25" transform="translate(-114.15138,-114.10625)"/>
  <path class="st0" d="m 962.41292,166.30888 c -0.1599,0.14491 -16.26,15.35583 -39.7099,15.35583 -28.8501,0 -49.91994,-21.8496 -50.64016,-52.17846 0.72022,-30.32887 21.79006,-52.17847 50.64016,-52.17847 23.4499,0 39.55,15.21098 39.7099,15.35576 l 1.0801,1.03406 11.1001,-17.186 -0.6701,-0.74455 c -0.72,-0.78589 -18.0599,-19.36784 -52.0201,-19.36784 -40.82004,0 -71.74997,31.29053 -72.61984,73.08704 0.86987,41.7965 31.7998,73.08703 72.61984,73.08703 33.9602,0 51.3001,-18.58195 52.0201,-19.36784 l 0.6701,-0.74449 -11.1001,-17.18612 z" id="path25"/>
</svg>