<?xml version="1.0" encoding="UTF-8" standalone="no"?>
<svg
   xmlns:dc="http://purl.org/dc/elements/1.1/"
   xmlns:cc="http://creativecommons.org/ns#"
   xmlns:rdf="http://www.w3.org/1999/02/22-rdf-syntax-ns#"
   xmlns:svg="http://www.w3.org/2000/svg"
   xmlns="http://www.w3.org/2000/svg"
   xmlns:sodipodi="http://sodipodi.sourceforge.net/DTD/sodipodi-0.dtd"
   xmlns:inkscape="http://www.inkscape.org/namespaces/inkscape"
   viewBox="0 0 820.72998 207"
   version="1.1"
   id="svg18"
   sodipodi:docname="uswitch-logo.svg"
   width="820.72998"
   height="207"
   inkscape:version="0.92.4 5da689c313, 2019-01-14">
  <metadata
     id="metadata24">
    <rdf:RDF>
      <cc:Work
         rdf:about="">
        <dc:format>image/svg+xml</dc:format>
        <dc:type
           rdf:resource="http://purl.org/dc/dcmitype/StillImage" />
        <dc:title></dc:title>
      </cc:Work>
    </rdf:RDF>
  </metadata>
  <defs
     id="defs22" />
  <sodipodi:namedview
     pagecolor="#ffffff"
     bordercolor="#666666"
     borderopacity="1"
     objecttolerance="10"
     gridtolerance="10"
     guidetolerance="10"
     inkscape:pageopacity="0"
     inkscape:pageshadow="2"
     inkscape:window-width="1920"
     inkscape:window-height="1163"
     id="namedview20"
     showgrid="false"
     fit-margin-top="0"
     fit-margin-left="0"
     fit-margin-right="0"
     fit-margin-bottom="0"
     inkscape:zoom="0.36931818"
     inkscape:cx="415.77538"
     inkscape:cy="103.24"
     inkscape:window-x="2560"
     inkscape:window-y="0"
     inkscape:window-maximized="1"
     inkscape:current-layer="svg18" />
  <g
     id="g16"
     style="fill:#141423"
     transform="translate(-29.64,-26.24)">
    <path
       d="m 275.92,167.49 h 24.23 c 1.38,12.8 7.88,17.33 22.66,17.33 14.38,0 20.09,-4.53 20.09,-12.21 0,-7.29 -4.53,-10.84 -19.89,-13.4 l -11.63,-2 c -21.86,-3.74 -33.29,-13.39 -33.29,-30.73 0,-19.11 15,-30.73 42.16,-30.73 31.32,0 44.13,13.59 44.92,34.47 h -23.45 c -0.59,-13 -8.67,-16.74 -21.47,-16.74 -12,0 -17.73,4.53 -17.73,11.82 0,7.48 5.91,10.44 16.94,12.41 l 12.81,2 c 24.42,4.33 35.26,13.4 35.26,30.93 0,20.49 -16.75,31.92 -45.11,31.92 -28.96,0 -44.92,-10.45 -46.5,-35.07 z"
       id="path2"
       inkscape:connector-curvature="0" />
    <path
       d="M 531.83,98.14 498.34,199.8 h -26 L 459.53,158 c -3,-10.05 -5.91,-20.29 -8.67,-30.34 -2.76,10.05 -5.52,20.29 -8.47,30.34 l -12.61,41.8 h -26 L 370.29,98.14 h 26.59 l 11.43,38 c 3.54,11.63 6.89,23.64 10,35.27 3,-11.82 6.11,-23.64 9.66,-35.46 L 439.2,98.12 h 23.64 L 474.11,136 c 3.54,11.82 6.7,23.64 9.65,35.46 3.15,-11.63 6.5,-23.64 10.05,-35.27 l 11.42,-38 z"
       id="path4"
       inkscape:connector-curvature="0" />
    <path
       d="M 541.48,98.14 H 566.3 V 199.8 h -24.82 z m 0.2,-36.44 h 24.42 v 23.24 h -24.42 z"
       id="path6"
       inkscape:connector-curvature="0" />
    <path
       d="m 619.29,117.05 v 55 c 0,6.7 3.35,8.86 11.63,8.86 h 8.47 v 18.89 c -4.53,0.39 -9.06,0.78 -13,0.78 -21.48,0 -31.72,-7.28 -31.72,-26 V 117.05 H 578.91 V 98.14 h 15.76 V 68.59 h 24.62 v 29.55 h 20.1 v 18.91 z"
       id="path8"
       inkscape:connector-curvature="0" />
    <path
       d="m 647.46,149 c 0,-32.51 19.9,-53.19 50.24,-53.19 26.59,0 44.32,15.17 47.28,39 h -24.82 c -2.37,-12.6 -11.43,-18.32 -22.46,-18.32 -14.78,0 -24.82,10.25 -24.82,32.51 0,22.26 10.44,32.51 24.82,32.51 11.23,0 20.88,-6.11 22.85,-19.51 h 24.82 c -2.75,24.82 -21.67,40.19 -47.67,40.19 -30.14,-0.03 -50.24,-20.71 -50.24,-53.19 z"
       id="path10"
       inkscape:connector-curvature="0" />
    <path
       d="m 850.37,132.42 v 67.38 h -24.82 v -63.24 c 0,-13 -6.5,-19.31 -19.11,-19.31 -10.83,0 -22.65,7.49 -22.65,25.61 V 199.8 H 759 V 59.53 h 24.83 v 52.2 a 37.27,37.27 0 0 1 30.93,-16 c 21.24,0.05 35.61,12.46 35.61,36.69 z"
       id="path12"
       inkscape:connector-curvature="0" />
    <path
       d="m 29.64,26.24 v 207 h 207 v -207 z M 191.85,147 c 0,36.45 -22.66,55.76 -58.71,55.76 -35.26,0 -58.71,-19.31 -58.71,-55.76 V 59.52 H 101 v 87.67 c 0,22.06 12,32.51 32.11,32.51 20.11,0 32.11,-10.45 32.11,-32.51 V 59.52 h 26.6 z"
       id="path14"
       inkscape:connector-curvature="0" />
  </g>
</svg>
