<?xml version="1.0" encoding="UTF-8" standalone="no"?>
<svg
   xmlns:dc="http://purl.org/dc/elements/1.1/"
   xmlns:cc="http://creativecommons.org/ns#"
   xmlns:rdf="http://www.w3.org/1999/02/22-rdf-syntax-ns#"
   xmlns:svg="http://www.w3.org/2000/svg"
   xmlns="http://www.w3.org/2000/svg"
   xmlns:sodipodi="http://sodipodi.sourceforge.net/DTD/sodipodi-0.dtd"
   xmlns:inkscape="http://www.inkscape.org/namespaces/inkscape"
   id="LOGOS"
   viewBox="0 0 268.84 77.550003"
   version="1.1"
   sodipodi:docname="vagrant-logo.svg"
   width="268.84"
   height="77.550003"
   inkscape:version="0.92.4 5da689c313, 2019-01-14">
  <metadata
     id="metadata31">
    <rdf:RDF>
      <cc:Work
         rdf:about="">
        <dc:format>image/svg+xml</dc:format>
        <dc:type
           rdf:resource="http://purl.org/dc/dcmitype/StillImage" />
        <dc:title></dc:title>
      </cc:Work>
    </rdf:RDF>
  </metadata>
  <sodipodi:namedview
     pagecolor="#ffffff"
     bordercolor="#666666"
     borderopacity="1"
     objecttolerance="10"
     gridtolerance="10"
     guidetolerance="10"
     inkscape:pageopacity="0"
     inkscape:pageshadow="2"
     inkscape:window-width="1920"
     inkscape:window-height="1163"
     id="namedview29"
     showgrid="false"
     fit-margin-top="0"
     fit-margin-left="0"
     fit-margin-right="0"
     fit-margin-bottom="0"
     inkscape:zoom="1.4012787"
     inkscape:cx="93.350336"
     inkscape:cy="48.894994"
     inkscape:window-x="2560"
     inkscape:window-y="0"
     inkscape:window-maximized="1"
     inkscape:current-layer="LOGOS" />
  <defs
     id="defs4">
    <style
       id="style2">.cls-1{fill:#0f4bd7;}.cls-2{fill:#1563ff;}</style>
  </defs>
  <path
     d="M 94.9,13.77 V 8.12 h -5.18 v 5.65 H 87.08 V 0.19 h 2.64 V 5.88 H 94.9 V 0.19 h 2.64 v 13.58 z m 12.32,0 h -2.1 l -0.19,-0.66 a 5.77,5.77 0 0 1 -3,0.86 c -1.86,0 -2.66,-1.23 -2.66,-2.92 0,-2 0.9,-2.75 3,-2.75 h 2.45 v -1 c 0,-1.09 -0.31,-1.47 -1.95,-1.47 a 14.94,14.94 0 0 0 -2.83,0.3 L 99.63,4.26 a 13.9,13.9 0 0 1 3.5,-0.46 c 3.21,0 4.15,1.09 4.15,3.54 z m -2.56,-3.7 h -1.88 c -0.84,0 -1.07,0.22 -1.07,1 0,0.78 0.23,1 1,1 a 4.15,4.15 0 0 0 1.93,-0.5 z m 7.91,3.9 a 12.59,12.59 0 0 1 -3.52,-0.56 l 0.36,-1.87 a 11.94,11.94 0 0 0 3,0.42 c 1.13,0 1.3,-0.24 1.3,-1 0,-0.76 -0.13,-0.9 -1.78,-1.28 -2.5,-0.59 -2.79,-1.19 -2.79,-3.08 0,-1.89 0.94,-2.83 3.86,-2.83 a 14,14 0 0 1 3.06,0.34 l -0.25,1.95 A 18.71,18.71 0 0 0 113,5.77 c -1.11,0 -1.3,0.24 -1.3,0.85 0,0.78 0.07,0.84 1.45,1.18 2.85,0.73 3.12,1.09 3.12,3.1 0,2.01 -0.62,3.07 -3.7,3.07 z m 11.71,-0.2 V 6.93 c 0,-0.52 -0.23,-0.79 -0.82,-0.79 a 7.31,7.31 0 0 0 -2.66,0.83 v 6.8 h -2.56 V 0 l 2.56,0.38 v 4.39 a 9.19,9.19 0 0 1 3.73,-0.95 c 1.7,0 2.31,1.15 2.31,2.9 v 7.05 z M 129,2.58 V 0.19 h 2.56 v 2.39 z m 0,11.19 v -9.8 h 2.56 v 9.8 z m 4.6,-9.72 c 0,-2.45 1.49,-3.88 5,-3.88 a 16.47,16.47 0 0 1 3.79,0.44 l -0.34,2.16 a 21.49,21.49 0 0 0 -3.42,-0.34 c -1.82,0 -2.41,0.61 -2.41,2 v 5.16 c 0,1.42 0.59,2 2.41,2 a 21.49,21.49 0 0 0 3.42,-0.34 l 0.29,2.19 a 16.47,16.47 0 0 1 -3.79,0.44 c -3.48,0 -5,-1.43 -5,-3.88 z m 14.4,9.92 c -3.5,0 -4.44,-1.85 -4.44,-3.86 V 7.63 c 0,-2 0.94,-3.86 4.44,-3.86 3.5,0 4.44,1.85 4.44,3.86 v 2.48 c -0.01,2.01 -0.95,3.86 -4.44,3.86 z m 0,-8.11 c -1.36,0 -1.89,0.59 -1.89,1.69 v 2.64 c 0,1.11 0.53,1.69 1.89,1.69 1.36,0 1.89,-0.58 1.89,-1.69 V 7.55 C 149.88,6.45 149.35,5.86 148,5.86 Z m 11.64,0.16 a 21.79,21.79 0 0 0 -2.7,1.43 v 6.32 h -2.56 v -9.8 h 2.16 l 0.17,1.09 a 11.74,11.74 0 0 1 2.67,-1.29 z m 10.22,4.49 c 0,2.17 -1,3.46 -3.37,3.46 a 14.65,14.65 0 0 1 -2.72,-0.28 v 4 l -2.56,0.38 V 3.97 h 2 l 0.25,0.83 a 5.48,5.48 0 0 1 3.23,-1 c 2,0 3.14,1.17 3.14,3.4 z m -6.09,1.11 a 11.85,11.85 0 0 0 2.26,0.26 c 0.92,0 1.28,-0.42 1.28,-1.31 V 7.11 c 0,-0.8 -0.32,-1.25 -1.26,-1.25 a 3.63,3.63 0 0 0 -2.28,0.89 z"
     id="path6"
     inkscape:connector-curvature="0" />
  <path
     d="m 114.41,23.64 h 7.93 l -12,40.29 H 99.05 L 87,23.64 h 7.92 l 9.74,33.58 z"
     id="path8"
     inkscape:connector-curvature="0" />
  <path
     d="m 144.36,63.93 h -6.05 l -0.55,-2 A 16,16 0 0 1 129,64.54 c -5.38,0 -7.68,-3.69 -7.68,-8.78 0,-6 2.6,-8.28 8.59,-8.28 H 137 v -3.09 c 0,-3.27 -0.91,-4.42 -5.63,-4.42 a 41.65,41.65 0 0 0 -8.17,0.91 l -0.9,-5.62 a 38.26,38.26 0 0 1 10.1,-1.4 c 9.26,0 12,3.27 12,10.65 z M 137,52.77 h -5.45 c -2.42,0 -3.08,0.66 -3.08,2.9 0,2.06 0.66,3 3,3 A 11.69,11.69 0 0 0 137,57.16 Z"
     id="path10"
     inkscape:connector-curvature="0" />
  <path
     d="m 158.45,56.01 a 3.15,3.15 0 0 0 -1.75,2.36 c 0,0.78 0.48,1.14 1.63,1.27 3.27,0.36 5.08,0.54 8.53,0.9 4.78,0.55 6.29,2.91 6.29,7.14 0,6.29 -2.3,8.77 -13.31,8.77 a 42.87,42.87 0 0 1 -11.37,-1.51 l 0.91,-5.5 a 41.15,41.15 0 0 0 9.92,1.27 c 5.87,0 7,-0.43 7,-2.36 0,-1.93 -0.55,-2.12 -2.79,-2.36 -3.38,-0.37 -4.78,-0.55 -8.53,-1 -4.17,-0.48 -5.8,-1.88 -5.8,-5.63 a 6.24,6.24 0 0 1 3.08,-5 c -2.72,-1.63 -4,-4.35 -4,-7.92 v -2.77 c 0.12,-6.12 3.33,-9.81 11.86,-9.81 a 20.21,20.21 0 0 1 5,0.61 h 9.07 v 3.69 c -1,0.3 -2.24,0.6 -3.27,0.91 a 10,10 0 0 1 1,4.6 v 2.78 c 0,6 -3.63,9.62 -11.85,9.62 a 15.54,15.54 0 0 1 -1.62,-0.06 z m 1.7,-16.24 c -3.63,0 -4.9,1.33 -4.9,4.12 v 2.24 c 0,2.9 1.45,4 4.9,4 3.45,0 5,-1.15 5,-4 v -2.22 c -0.04,-2.79 -1.31,-4.14 -5,-4.14 z"
     id="path12"
     inkscape:connector-curvature="0" />
  <path
     d="m 192.75,40.64 a 57.14,57.14 0 0 0 -7.8,4.3 v 19 h -7.38 V 34.47 h 6.23 l 0.48,3.27 A 33.13,33.13 0 0 1 192,33.86 Z"
     id="path14"
     inkscape:connector-curvature="0" />
  <path
     d="m 217.43,63.93 h -6.05 l -0.54,-2 a 16.07,16.07 0 0 1 -8.77,2.61 c -5.39,0 -7.69,-3.69 -7.69,-8.78 0,-6 2.6,-8.28 8.59,-8.28 h 7.08 v -3.09 c 0,-3.27 -0.91,-4.42 -5.62,-4.42 a 41.48,41.48 0 0 0 -8.17,0.91 l -0.91,-5.62 a 38.32,38.32 0 0 1 10.1,-1.4 c 9.26,0 12,3.27 12,10.65 z m -7.38,-11.16 h -5.44 c -2.42,0 -3.09,0.66 -3.09,2.9 0,2.06 0.67,3 3,3 a 11.68,11.68 0 0 0 5.56,-1.51 z"
     id="path16"
     inkscape:connector-curvature="0" />
  <path
     d="M 239.39,63.93 V 43.36 c 0,-1.57 -0.66,-2.36 -2.36,-2.36 -1.7,0 -5,1.09 -7.68,2.48 V 63.93 H 222 V 34.47 h 5.62 l 0.73,2.48 a 29.61,29.61 0 0 1 11.8,-3.09 c 4.9,0 6.65,3.45 6.65,8.72 v 21.35 z"
     id="path18"
     inkscape:connector-curvature="0" />
  <path
     d="M 268.49,63.39 A 20.68,20.68 0 0 1 262,64.54 c -5.38,0 -8.1,-2.55 -8.1,-7.81 V 40.34 h -4.42 v -5.87 h 4.42 v -7.32 l 7.38,-1 v 8.32 h 7.56 l -0.48,5.87 h -7.08 v 15.43 c 0,1.58 0.72,2.61 2.66,2.61 a 14.34,14.34 0 0 0 3.69,-0.61 z"
     id="path20"
     inkscape:connector-curvature="0" />
  <polygon
     class="cls-1"
     points="78.7,52.96 78.7,58 67.24,82.72 61.51,86.67 61.51,104.78 73.79,97.69 93.02,50.6 93.02,44.63 "
     id="polygon22"
     style="fill:#0f4bd7"
     transform="translate(-30,-27.23)" />
  <polygon
     class="cls-1"
     points="52.92,48.06 52.86,48.03 44.32,52.96 44.32,58 55.78,83.81 61.51,80.97 61.51,73.78 52.92,53.73 "
     id="polygon24"
     style="fill:#0f4bd7"
     transform="translate(-30,-27.23)" />
  <polygon
     class="cls-2"
     points="70.11,48 70.11,48.01 70.1,48.01 70.11,48.01 70.11,53.73 61.51,73.78 61.51,80.48 55.78,83.81 44.32,58 44.32,52.95 52.92,48.01 38.59,39.62 30,44.63 30,50.78 49.34,97.75 61.51,104.78 61.51,87.13 67.24,83.81 67.17,83.76 78.7,58 78.7,52.96 78.7,52.95 93.03,44.63 84.43,39.62 70.11,48 "
     id="polygon26"
     style="fill:#1563ff"
     transform="translate(-30,-27.23)" />
</svg>
